<?xml version="1.0" standalone="no"?>
<!DOCTYPE svg PUBLIC "-//W3C//DTD SVG 20010904//EN"
 "http://www.w3.org/TR/2001/REC-SVG-20010904/DTD/svg10.dtd">
<svg version="1.0" xmlns="http://www.w3.org/2000/svg"
 width="660.000000pt" height="660.000000pt" viewBox="0 0 660.000000 660.000000"
 preserveAspectRatio="xMidYMid meet">
<metadata>
Created by potrace 1.15, written by Peter Selinger 2001-2017
</metadata>
<g transform="translate(0.000000,660.000000) scale(0.100000,-0.100000)"
fill="#ff0000" stroke="none">
<path d="M347 6593 c-14 -14 -6 -40 19 -64 26 -25 54 -70 54 -89 0 -34 -97 15
-160 81 -26 27 -53 49 -61 49 -27 0 -59 -31 -59 -56 0 -42 25 -76 124 -171
138 -131 149 -170 44 -157 -88 12 -139 -33 -108 -92 16 -30 97 -91 179 -137
70 -39 69 -45 -21 -71 -40 -11 -59 -22 -63 -37 -14 -43 44 -76 205 -115 124
-29 170 -47 170 -67 0 -6 -30 -28 -68 -47 -59 -31 -67 -38 -67 -64 0 -48 34
-64 165 -76 63 -6 119 -15 124 -20 7 -7 6 -22 -2 -43 -7 -18 -12 -45 -12 -60
0 -22 6 -28 38 -36 20 -6 74 -11 120 -11 45 0 82 -3 82 -6 0 -3 -5 -14 -11
-26 -15 -28 -3 -65 28 -85 19 -13 57 -19 140 -23 62 -4 116 -10 120 -14 4 -3
-3 -13 -15 -22 -52 -36 0 -84 92 -84 75 0 113 -21 159 -87 159 -230 387 -387
619 -425 40 -6 76 -14 81 -18 9 -8 -193 -123 -246 -140 -58 -18 -46 -43 26
-52 108 -14 133 -48 35 -48 -70 0 -121 23 -133 59 -8 28 -40 27 -79 -2 -17
-13 -62 -36 -101 -52 -38 -15 -109 -48 -158 -72 -78 -39 -86 -46 -77 -62 9
-18 3 -21 -63 -36 -128 -29 -155 -29 -239 -1 -42 14 -86 26 -97 26 -11 0 -46
16 -79 35 -58 35 -60 35 -113 24 -57 -12 -179 -73 -179 -90 0 -22 36 -20 91 6
46 22 62 26 71 17 9 -9 3 -22 -29 -55 -59 -62 -133 -156 -133 -170 0 -7 -7
-25 -15 -41 -19 -35 -12 -43 40 -48 22 -3 47 -8 56 -12 10 -5 27 2 47 18 16
15 32 26 34 26 2 0 2 -16 0 -36 -7 -60 27 -40 64 36 17 36 41 73 52 84 21 18
23 18 96 -8 120 -41 166 -43 271 -8 82 28 132 36 207 33 21 -1 40 -17 83 -70
44 -55 67 -74 118 -96 83 -38 189 -45 268 -18 l57 19 26 -22 25 -23 -47 -15
c-161 -52 -312 -39 -379 34 -20 20 -23 21 -51 6 -16 -8 -32 -23 -36 -32 -15
-39 69 -120 180 -171 52 -25 70 -28 159 -27 109 0 165 16 257 75 45 29 47 29
82 15 42 -18 48 -48 14 -70 -42 -27 -160 -66 -202 -66 -22 -1 -54 -7 -71 -14
l-30 -14 27 -10 c15 -6 56 -16 91 -22 80 -14 132 -2 172 41 17 17 52 42 80 56
40 21 58 24 102 20 46 -5 53 -3 53 12 0 27 -37 69 -79 91 -66 33 -67 42 -9 86
63 48 77 68 62 91 -21 33 -42 39 -75 21 -47 -27 -107 -23 -176 13 -33 17 -73
42 -89 55 l-29 24 70 -6 c45 -4 80 -13 97 -25 42 -29 92 -24 167 17 134 73
153 117 76 180 -25 20 -45 42 -45 49 0 17 94 57 147 63 79 9 108 -27 173 -212
l41 -118 -86 -197 -87 -196 -8 -155 c-7 -142 -6 -157 11 -181 10 -14 38 -69
63 -122 24 -52 53 -100 64 -106 29 -15 73 -14 117 5 25 10 41 12 47 6 15 -15
1 -30 -40 -42 -98 -27 -163 -2 -182 70 -12 46 -52 96 -68 87 -7 -5 -5 -24 9
-61 14 -41 17 -69 12 -119 -5 -56 -2 -72 20 -119 32 -67 38 -102 40 -238 2
-84 6 -113 23 -145 27 -53 73 -82 139 -90 55 -7 115 -36 115 -56 0 -9 -19 -10
-65 -6 -69 7 -99 18 -128 48 -14 15 -22 17 -37 9 -29 -15 -25 -32 16 -76 56
-59 65 -89 62 -212 -4 -136 4 -152 72 -152 56 0 70 -13 43 -42 -15 -17 -26
-19 -72 -14 l-53 6 5 -42 c2 -24 16 -92 30 -153 15 -60 31 -155 37 -210 16
-142 28 -179 62 -183 15 -2 37 2 48 8 16 9 25 8 36 -1 25 -21 -3 -39 -62 -39
-68 0 -74 8 -109 165 -15 66 -42 171 -62 233 -29 96 -33 118 -24 144 14 39 14
161 1 209 -13 47 -52 86 -101 100 -32 10 -43 9 -75 -8 -107 -55 -144 -202 -67
-262 40 -32 55 -28 48 13 -12 59 48 144 84 121 7 -4 18 -1 26 5 11 9 15 9 15
1 0 -17 28 -13 39 7 9 16 10 16 16 -1 13 -31 -2 -64 -27 -62 -51 5 -59 -10
-52 -90 5 -60 4 -79 -10 -100 -9 -14 -23 -25 -31 -25 -18 0 -19 5 5 -57 23
-62 44 -221 38 -290 -10 -109 23 -225 84 -294 13 -15 55 -51 94 -82 100 -78
109 -102 109 -284 0 -127 2 -144 20 -169 31 -41 82 -64 141 -64 49 0 56 3 130
66 44 36 103 79 132 95 89 52 117 146 70 239 -27 54 -58 63 -94 29 -22 -21
-24 -28 -18 -84 6 -59 5 -63 -25 -97 -39 -45 -117 -96 -159 -104 -24 -5 -38
-2 -52 11 -23 21 -60 114 -60 151 0 36 26 41 55 10 33 -36 55 -33 114 14 66
53 105 111 97 145 -8 32 -39 33 -54 1 -12 -28 -60 -40 -82 -22 -8 8 -27 16
-42 20 -22 5 -28 12 -28 32 0 23 3 25 28 19 40 -8 134 28 177 69 32 31 35 38
35 93 0 75 24 168 54 208 36 48 37 52 20 70 -15 14 -14 19 11 55 20 29 26 46
21 66 -6 22 -11 25 -33 21 -15 -3 -33 -3 -40 0 -21 8 -15 39 11 52 28 15 53
66 64 131 10 54 1 94 -30 127 -20 22 -21 26 -9 56 64 153 68 204 21 252 l-32
33 40 39 c26 25 45 56 52 84 7 24 25 82 42 129 17 49 36 131 44 195 11 91 20
122 50 179 66 126 75 233 49 556 -12 148 -20 196 -54 312 -21 76 -43 142 -46
148 -4 7 -32 27 -62 46 -45 30 -53 39 -47 57 11 39 54 107 91 143 28 28 37 46
42 87 6 51 7 52 38 51 41 -2 107 -34 111 -54 1 -9 -13 -33 -32 -54 -37 -43
-49 -78 -35 -112 15 -42 44 -48 204 -48 183 1 250 14 274 55 20 35 44 37 76 4
29 -28 33 -70 8 -83 -48 -25 -175 -46 -288 -46 l-120 -1 3 -50 c2 -27 7 -54
12 -58 4 -5 52 -16 106 -24 124 -19 249 -12 330 17 70 26 114 35 114 25 0 -4
-9 -22 -20 -40 -22 -36 -31 -38 -165 -50 -111 -10 -170 -30 -200 -69 -41 -54
-26 -73 35 -41 23 12 51 14 132 9 171 -11 242 20 361 157 47 54 76 79 90 79
12 0 56 -9 97 -20 49 -13 108 -20 171 -20 60 0 113 -6 139 -15 48 -17 181 -19
250 -4 127 27 156 20 206 -52 22 -32 31 -37 81 -43 31 -4 58 -4 62 -1 3 3 -3
27 -13 53 -10 26 -20 58 -23 72 l-6 25 23 -20 c12 -11 33 -39 47 -63 30 -51
48 -50 47 4 -1 74 -71 174 -164 236 l-25 16 30 12 c24 9 41 8 86 -4 30 -9 70
-16 89 -16 l33 0 -24 18 c-61 47 -140 82 -181 82 -99 -1 -162 -17 -223 -58
-135 -90 -269 -105 -400 -44 -73 35 -235 138 -328 210 -172 132 -222 156 -323
157 -78 0 -85 2 -137 39 -64 43 -126 114 -129 147 -2 17 9 29 52 56 123 74
503 221 633 243 77 14 113 37 122 80 6 26 11 30 41 30 48 0 99 23 119 54 14
22 25 26 64 26 94 1 169 58 141 110 -7 12 -8 20 -2 16 5 -3 50 -6 100 -7 138
-1 182 27 167 107 -5 32 -4 34 20 34 76 0 131 75 90 120 -15 16 -9 18 88 22
115 5 166 23 201 70 l20 28 -22 29 -22 30 93 44 c107 51 177 100 177 123 0 9
-13 28 -28 42 l-28 25 76 39 c88 44 109 62 144 113 28 40 34 93 14 113 -21 21
-71 13 -148 -24 -51 -24 -69 -30 -59 -17 129 149 165 196 195 248 41 74 43
108 10 130 -39 26 -94 5 -170 -64 -21 -20 -36 -29 -33 -21 3 8 17 42 31 75 42
99 32 128 -38 105 -26 -8 -50 -31 -90 -85 -87 -115 -124 -142 -307 -222 -90
-39 -252 -110 -359 -158 -243 -107 -659 -274 -890 -355 -215 -76 -291 -115
-375 -192 -55 -51 -67 -68 -81 -116 -9 -32 -27 -76 -41 -100 -64 -112 -238
-274 -368 -342 -60 -32 -147 -42 -161 -18 -11 17 51 68 84 68 37 0 49 10 67
53 8 20 20 37 25 37 6 0 16 12 23 28 6 15 30 43 52 63 40 36 40 37 38 102 -2
36 2 69 7 72 16 10 12 92 -6 109 -8 9 -29 16 -45 16 -17 0 -37 7 -45 15 -9 8
-30 15 -47 16 -25 0 -40 10 -71 47 -47 57 -134 126 -196 155 -73 35 -159 31
-243 -12 -84 -43 -157 -113 -192 -186 -32 -65 -38 -70 -55 -49 -14 16 -48 13
-102 -8 -34 -13 -41 -33 -24 -66 12 -24 11 -29 -16 -66 -24 -33 -29 -48 -24
-75 6 -38 36 -75 81 -99 l30 -16 -25 -6 c-30 -7 -39 -37 -13 -47 10 -3 36 -23
59 -43 38 -35 69 -49 137 -64 59 -13 -5 -67 -87 -74 -79 -6 -129 22 -256 144
-152 148 -251 288 -292 417 -43 134 -90 164 -513 332 -575 228 -1041 454
-1251 606 -45 32 -121 102 -169 154 -80 87 -110 107 -128 88z"/>
<path d="M4054 3581 c-80 -49 -31 -191 66 -191 11 0 43 -12 71 -26 43 -23 58
-26 109 -21 66 7 152 37 202 70 69 47 35 121 -36 78 -28 -17 -50 -21 -129 -21
-53 0 -108 5 -122 10 -18 7 -33 7 -47 -1 -11 -6 -31 -8 -44 -5 -29 8 -31 35
-7 73 16 24 16 26 -2 39 -24 18 -24 18 -61 -5z"/>
<path d="M2435 3469 c-24 -12 -75 -83 -75 -103 0 -35 13 -46 50 -46 31 0 43 6
59 29 13 17 39 35 64 43 45 16 60 45 34 67 -20 16 -108 23 -132 10z"/>
<path d="M3923 3454 c-29 -12 -7 -102 32 -134 21 -17 66 -15 104 5 39 20 40
35 2 35 -38 0 -61 23 -61 61 0 16 -5 29 -12 29 -7 0 -22 2 -33 5 -11 2 -26 2
-32 -1z"/>
<path d="M3399 413 c-8 -10 -27 -37 -42 -60 -15 -23 -39 -50 -54 -60 -25 -17
-27 -17 -37 1 -24 41 -43 56 -73 62 -26 5 -34 3 -39 -12 -3 -11 -10 -27 -15
-36 -14 -27 -12 -32 31 -87 22 -28 40 -57 40 -66 0 -9 16 -19 45 -27 34 -9 42
-15 33 -25 -18 -22 -56 -15 -93 18 -20 18 -38 29 -42 26 -24 -24 51 -147 90
-147 8 0 40 20 70 45 81 66 110 131 115 256 2 53 0 104 -5 113 -8 15 -10 15
-24 -1z"/>
</g>
</svg>
